#usda 1.0
(
    customLayerData = {
        dictionary cameraSettings = {
            dictionary Front = {
                double3 position = (0, 0, 500)
                double radius = 5
            }
            dictionary Perspective = {
                double3 position = (5, 5, 5)
                double3 target = (-3.978038343177559e-8, 7.956076863990802e-8, -3.978038254359717e-8)
            }
            dictionary Right = {
                double3 position = (-500, 0, 0)
                double radius = 5
            }
            dictionary Top = {
                double3 position = (0, 500, 0)
                double radius = 5
            }
            string boundCamera = "/OmniverseKit_Persp"
        }
        dictionary omni_layer = {
            string authoring_layer = "./OS1_REV7_128ch20hz1024res.usda"
        }
        dictionary renderSettings = {
        }
    }
    defaultPrim = "OS1_REV7_128_20hz_1024_resolution"
    doc = "Generated from OS1_REV7_128ch20hz1024res.json"
)

def OmniLidar "OS1_REV7_128_20hz_1024_resolution" (
    prepend apiSchemas = ["OmniSensorGenericLidarCoreAPI"]
)
{
    bool omni:sensor:Core:accumulateOutputs = 1
    float omni:sensor:Core:avgPowerW = 0.002
    float omni:sensor:Core:azimuthErrorMean = 0
    float omni:sensor:Core:azimuthErrorStd = 0.01
    float omni:sensor:Core:elevationErrorMean = 0
    float omni:sensor:Core:elevationErrorStd = 0.01
    float[] omni:sensor:Core:emitterState:s001:azimuthDeg = [4.2, 1.39, -1.41, -4.2, 4.21, 1.41, -1.4, -4.2, 4.21, 1.41, -1.4, -4.2, 4.21, 1.4, -1.39, -4.2, 4.21, 1.4, -1.4, -4.21, 4.21, 1.4, -1.4, -4.2, 4.2, 1.4, -1.4, -4.21, 4.2, 1.4, -1.39, -4.21, 4.2, 1.39, -1.4, -4.21, 4.21, 1.4, -1.4, -4.21, 4.2, 1.4, -1.4, -4.21, 4.2, 1.4, -1.4, -4.22, 4.21, 1.4, -1.4, -4.22, 4.2, 1.41, -1.42, -4.22, 4.2, 1.42, -1.41, -4.21, 4.21, 1.41, -1.41, -4.21, 4.21, 1.41, -1.41, -4.21, 4.21, 1.41, -1.41, -4.21, 4.22, 1.41, -1.4, -4.21, 4.21, 1.4, -1.4, -4.21, 4.22, 1.41, -1.4, -4.22, 4.21, 1.41, -1.4, -4.21, 4.22, 1.41, -1.4, -4.21, 4.23, 1.41, -1.4, -4.21, 4.22, 1.41, -1.4, -4.22, 4.22, 1.41, -1.4, -4.21, 4.23, 1.41, -1.39, -4.22, 4.22, 1.41, -1.39, -4.22, 4.23, 1.4, -1.4, -4.22, 4.22, 1.4, -1.4, -4.22, 4.22, 1.4, -1.4, -4.22, 4.22, 1.39, -1.4, -4.23]
    uint[] omni:sensor:Core:emitterState:s001:channelId = [1, 2, 3, 4, 5, 6, 7, 8, 9, 10, 11, 12, 13, 14, 15, 16, 17, 18, 19, 20, 21, 22, 23, 24, 25, 26, 27, 28, 29, 30, 31, 32, 33, 34, 35, 36, 37, 38, 39, 40, 41, 42, 43, 44, 45, 46, 47, 48, 49, 50, 51, 52, 53, 54, 55, 56, 57, 58, 59, 60, 61, 62, 63, 64, 65, 66, 67, 68, 69, 70, 71, 72, 73, 74, 75, 76, 77, 78, 79, 80, 81, 82, 83, 84, 85, 86, 87, 88, 89, 90, 91, 92, 93, 94, 95, 96, 97, 98, 99, 100, 101, 102, 103, 104, 105, 106, 107, 108, 109, 110, 111, 112, 113, 114, 115, 116, 117, 118, 119, 120, 121, 122, 123, 124, 125, 126, 127, 128]
    float[] omni:sensor:Core:emitterState:s001:distanceCorrectionM = [0, 0, 0, 0, 0, 0, 0, 0, 0, 0, 0, 0, 0, 0, 0, 0, 0, 0, 0, 0, 0, 0, 0, 0, 0, 0, 0, 0, 0, 0, 0, 0, 0, 0, 0, 0, 0, 0, 0, 0, 0, 0, 0, 0, 0, 0, 0, 0, 0, 0, 0, 0, 0, 0, 0, 0, 0, 0, 0, 0, 0, 0, 0, 0, 0, 0, 0, 0, 0, 0, 0, 0, 0, 0, 0, 0, 0, 0, 0, 0, 0, 0, 0, 0, 0, 0, 0, 0, 0, 0, 0, 0, 0, 0, 0, 0, 0, 0, 0, 0, 0, 0, 0, 0, 0, 0, 0, 0, 0, 0, 0, 0, 0, 0, 0, 0, 0, 0, 0, 0, 0, 0, 0, 0, 0, 0, 0, 0]
    float[] omni:sensor:Core:emitterState:s001:elevationDeg = [20.93, 20.67, 20.36, 20, 19.72, 19.45, 19.12, 18.77, 18.47, 18.19, 17.87, 17.51, 17.2, 16.92, 16.6, 16.24, 15.92, 15.64, 15.31, 14.94, 14.63, 14.32, 14, 13.63, 13.31, 13, 12.67, 12.3, 11.96, 11.66, 11.33, 10.96, 10.62, 10.3, 9.97, 9.61, 9.26, 8.95, 8.6, 8.24, 7.89, 7.57, 7.23, 6.87, 6.53, 6.2, 5.85, 5.48, 5.14, 4.8, 4.46, 4.09, 3.75, 3.41, 3.05, 2.7, 2.36, 2.02, 1.65, 1.3, 0.96, 0.62, 0.25, -0.09, -0.44, -0.79, -1.15, -1.49, -1.84, -2.18, -2.54, -2.88, -3.23, -3.58, -3.94, -4.28, -4.63, -4.99, -5.33, -5.67, -6.02, -6.38, -6.72, -7.07, -7.4, -7.76, -8.1, -8.44, -8.78, -9.14, -9.48, -9.8, -10.13, -10.51, -10.84, -11.17, -11.49, -11.86, -12.19, -12.51, -12.83, -13.2, -13.53, -13.84, -14.16, -14.54, -14.85, -15.15, -15.48, -15.85, -16.16, -16.46, -16.77, -17.15, -17.45, -17.75, -18.06, -18.42, -18.73, -19.01, -19.31, -19.67, -19.98, -20.25, -20.55, -20.92, -21.22, -21.48]
    uint[] omni:sensor:Core:emitterState:s001:fireTimeNs = [190, 571, 952, 1333, 1714, 2095, 2476, 2857, 3238, 3619, 4000, 4381, 4762, 5143, 5524, 5905, 6286, 6667, 7048, 7429, 7810, 8191, 8572, 8953, 9334, 9715, 10096, 10477, 10858, 11239, 11620, 12001, 12382, 12763, 13144, 13525, 13906, 14287, 14668, 15049, 15430, 15811, 16192, 16573, 16954, 17335, 17716, 18097, 18478, 18859, 19240, 19621, 20002, 20383, 20764, 21145, 21526, 21907, 22288, 22669, 23050, 23431, 23812, 24193, 24574, 24955, 25336, 25717, 26098, 26479, 26860, 27241, 27622, 28003, 28384, 28765, 29146, 29527, 29908, 30289, 30670, 31051, 31432, 31813, 32194, 32575, 32956, 33337, 33718, 34099, 34480, 34861, 35242, 35623, 36004, 36385, 36766, 37147, 37528, 37909, 38290, 38671, 39052, 39433, 39814, 40195, 40576, 40957, 41338, 41719, 42100, 42481, 42862, 43243, 43624, 44005, 44386, 44767, 45148, 45529, 45910, 46291, 46672, 47053, 47434, 47815, 48196, 48577]
    float[] omni:sensor:Core:emitterState:s001:focalDistM = [0, 0, 0, 0, 0, 0, 0, 0, 0, 0, 0, 0, 0, 0, 0, 0, 0, 0, 0, 0, 0, 0, 0, 0, 0, 0, 0, 0, 0, 0, 0, 0, 0, 0, 0, 0, 0, 0, 0, 0, 0, 0, 0, 0, 0, 0, 0, 0, 0, 0, 0, 0, 0, 0, 0, 0, 0, 0, 0, 0, 0, 0, 0, 0, 0, 0, 0, 0, 0, 0, 0, 0, 0, 0, 0, 0, 0, 0, 0, 0, 0, 0, 0, 0, 0, 0, 0, 0, 0, 0, 0, 0, 0, 0, 0, 0, 0, 0, 0, 0, 0, 0, 0, 0, 0, 0, 0, 0, 0, 0, 0, 0, 0, 0, 0, 0, 0, 0, 0, 0, 0, 0, 0, 0, 0, 0, 0, 0]
    float[] omni:sensor:Core:emitterState:s001:focalSlope = [0, 0, 0, 0, 0, 0, 0, 0, 0, 0, 0, 0, 0, 0, 0, 0, 0, 0, 0, 0, 0, 0, 0, 0, 0, 0, 0, 0, 0, 0, 0, 0, 0, 0, 0, 0, 0, 0, 0, 0, 0, 0, 0, 0, 0, 0, 0, 0, 0, 0, 0, 0, 0, 0, 0, 0, 0, 0, 0, 0, 0, 0, 0, 0, 0, 0, 0, 0, 0, 0, 0, 0, 0, 0, 0, 0, 0, 0, 0, 0, 0, 0, 0, 0, 0, 0, 0, 0, 0, 0, 0, 0, 0, 0, 0, 0, 0, 0, 0, 0, 0, 0, 0, 0, 0, 0, 0, 0, 0, 0, 0, 0, 0, 0, 0, 0, 0, 0, 0, 0, 0, 0, 0, 0, 0, 0, 0, 0]
    float[] omni:sensor:Core:emitterState:s001:horOffsetM = [0, 0, 0, 0, 0, 0, 0, 0, 0, 0, 0, 0, 0, 0, 0, 0, 0, 0, 0, 0, 0, 0, 0, 0, 0, 0, 0, 0, 0, 0, 0, 0, 0, 0, 0, 0, 0, 0, 0, 0, 0, 0, 0, 0, 0, 0, 0, 0, 0, 0, 0, 0, 0, 0, 0, 0, 0, 0, 0, 0, 0, 0, 0, 0, 0, 0, 0, 0, 0, 0, 0, 0, 0, 0, 0, 0, 0, 0, 0, 0, 0, 0, 0, 0, 0, 0, 0, 0, 0, 0, 0, 0, 0, 0, 0, 0, 0, 0, 0, 0, 0, 0, 0, 0, 0, 0, 0, 0, 0, 0, 0, 0, 0, 0, 0, 0, 0, 0, 0, 0, 0, 0, 0, 0, 0, 0, 0, 0]
    float[] omni:sensor:Core:emitterState:s001:reportRateDiv = [0, 0, 0, 0, 0, 0, 0, 0, 0, 0, 0, 0, 0, 0, 0, 0, 0, 0, 0, 0, 0, 0, 0, 0, 0, 0, 0, 0, 0, 0, 0, 0, 0, 0, 0, 0, 0, 0, 0, 0, 0, 0, 0, 0, 0, 0, 0, 0, 0, 0, 0, 0, 0, 0, 0, 0, 0, 0, 0, 0, 0, 0, 0, 0, 0, 0, 0, 0, 0, 0, 0, 0, 0, 0, 0, 0, 0, 0, 0, 0, 0, 0, 0, 0, 0, 0, 0, 0, 0, 0, 0, 0, 0, 0, 0, 0, 0, 0, 0, 0, 0, 0, 0, 0, 0, 0, 0, 0, 0, 0, 0, 0, 0, 0, 0, 0, 0, 0, 0, 0, 0, 0, 0, 0, 0, 0, 0, 0]
    float[] omni:sensor:Core:emitterState:s001:vertOffsetM = [0, 0, 0, 0, 0, 0, 0, 0, 0, 0, 0, 0, 0, 0, 0, 0, 0, 0, 0, 0, 0, 0, 0, 0, 0, 0, 0, 0, 0, 0, 0, 0, 0, 0, 0, 0, 0, 0, 0, 0, 0, 0, 0, 0, 0, 0, 0, 0, 0, 0, 0, 0, 0, 0, 0, 0, 0, 0, 0, 0, 0, 0, 0, 0, 0, 0, 0, 0, 0, 0, 0, 0, 0, 0, 0, 0, 0, 0, 0, 0, 0, 0, 0, 0, 0, 0, 0, 0, 0, 0, 0, 0, 0, 0, 0, 0, 0, 0, 0, 0, 0, 0, 0, 0, 0, 0, 0, 0, 0, 0, 0, 0, 0, 0, 0, 0, 0, 0, 0, 0, 0, 0, 0, 0, 0, 0, 0, 0]
    float omni:sensor:Core:farRangeM = 170
    token omni:sensor:Core:intensityMappingType = "LINEAR"
    token omni:sensor:Core:intensityProcessing = "NORMALIZATION"
    uint omni:sensor:Core:maxReturns = 2
    float omni:sensor:Core:minReflectance = 0.1
    float omni:sensor:Core:nearRangeM = 0.5
    uint omni:sensor:Core:numberOfChannels = 128
    uint omni:sensor:Core:numberOfEmitters = 128
    uint omni:sensor:Core:patternFiringRateHz = 20480
    uint omni:sensor:Core:pulseTimeNs = 6
    float omni:sensor:Core:rangeAccuracyM = 0.025
    float omni:sensor:Core:rangeResolutionM = 0.001
    token omni:sensor:Core:rayType = "IDEALIZED"
    uint omni:sensor:Core:reportRateBaseHz = 20480
    token omni:sensor:Core:rotationDirection = "CW"
    uint omni:sensor:Core:scanRateBaseHz = 20
    token omni:sensor:Core:scanType = "ROTARY"
    bool omni:sensor:Core:skipDroppingInvalidPoints = 0
    string omni:sensor:modelName = "OS1_REV7_128_20hz_1024_resolution"
    float omni:sensor:tickRate = 20
}

def Camera "OmniverseKit_Persp" (
    prepend apiSchemas = ["OmniRtxCameraAutoExposureAPI_1", "OmniRtxCameraExposureAPI_1"]
    customData = {
        dictionary omni = {
            dictionary kit = {
                bool hide_in_stage_window = 1
                bool no_delete = 1
            }
        }
    }
    hide_in_stage_window = true
    kind = "component"
    no_delete = true
)
{
    float2 clippingRange = (0.01, 10000000)
    float exposure:responsivity = 1.1026709
    float exposure:time = 0.02
    float focalLength = 18.147562
    float focusDistance = 400
    custom uniform vector3d omni:kit:centerOfInterest = (0, 0, -8.660254037844386)
    float3 xformOp:rotateXYZ = (-35.26439, 45, 2.2489917e-15)
    float3 xformOp:scale = (1, 1, 1)
    double3 xformOp:translate = (5, 5, 5)
    uniform token[] xformOpOrder = ["xformOp:translate", "xformOp:rotateXYZ", "xformOp:scale"]
}

def Camera "OmniverseKit_Front" (
    customData = {
        dictionary omni = {
            dictionary kit = {
                bool hide_in_stage_window = 1
                bool no_delete = 1
            }
        }
    }
    hide_in_stage_window = true
    kind = "component"
    no_delete = true
)
{
    float2 clippingRange = (1, 10000000)
    float horizontalAperture = 50
    custom uniform vector3d omni:kit:centerOfInterest = (0, 0, -500)
    token projection = "orthographic"
    float verticalAperture = 50
    float3 xformOp:rotateXYZ = (-0, 0, -0)
    float3 xformOp:scale = (1, 1, 1)
    double3 xformOp:translate = (0, 0, 500)
    uniform token[] xformOpOrder = ["xformOp:translate", "xformOp:rotateXYZ", "xformOp:scale"]
}

def Camera "OmniverseKit_Top" (
    customData = {
        dictionary omni = {
            dictionary kit = {
                bool hide_in_stage_window = 1
                bool no_delete = 1
            }
        }
    }
    hide_in_stage_window = true
    kind = "component"
    no_delete = true
)
{
    float2 clippingRange = (1, 10000000)
    float horizontalAperture = 50
    custom uniform vector3d omni:kit:centerOfInterest = (0, 0, -500)
    token projection = "orthographic"
    float verticalAperture = 50
    float3 xformOp:rotateXYZ = (90, -4.961563e-15, 180)
    float3 xformOp:scale = (1, 1, 1)
    double3 xformOp:translate = (0, 500, 0)
    uniform token[] xformOpOrder = ["xformOp:translate", "xformOp:rotateXYZ", "xformOp:scale"]
}

def Camera "OmniverseKit_Right" (
    customData = {
        dictionary omni = {
            dictionary kit = {
                bool hide_in_stage_window = 1
                bool no_delete = 1
            }
        }
    }
    hide_in_stage_window = true
    kind = "component"
    no_delete = true
)
{
    float2 clippingRange = (1, 10000000)
    float horizontalAperture = 50
    custom uniform vector3d omni:kit:centerOfInterest = (0, 0, -500)
    token projection = "orthographic"
    float verticalAperture = 50
    float3 xformOp:rotateXYZ = (0, -90, -0)
    float3 xformOp:scale = (1, 1, 1)
    double3 xformOp:translate = (-500, 0, 0)
    uniform token[] xformOpOrder = ["xformOp:translate", "xformOp:rotateXYZ", "xformOp:scale"]
}

def "Render" (
    hide_in_stage_window = true
    no_delete = true
)
{
    def "OmniverseKit"
    {
        def "HydraTextures" (
            hide_in_stage_window = true
            no_delete = true
        )
        {
            def RenderProduct "omni_kit_widget_viewport_ViewportTexture_0" (
                prepend apiSchemas = ["OmniRtxSettingsCommonAdvancedAPI_1", "OmniRtxSettingsRtAdvancedAPI_1", "OmniRtxSettingsPtAdvancedAPI_1", "OmniRtxPostColorGradingAPI_1", "OmniRtxPostChromaticAberrationAPI_1", "OmniRtxPostBloomPhysicalAPI_1", "OmniRtxPostMatteObjectAPI_1", "OmniRtxPostCompositingAPI_1", "OmniRtxPostDofAPI_1", "OmniRtxPostMotionBlurAPI_1", "OmniRtxPostTvNoiseAPI_1", "OmniRtxPostTonemapIrayReinhardAPI_1", "OmniRtxPostDebugSettingsAPI_1", "OmniRtxDebugSettingsAPI_1"]
                hide_in_stage_window = true
                no_delete = true
            )
            {
                rel camera = </OmniverseKit_Persp>
                token omni:rtx:ambientOcclusion:denoiserMode = "none"
                token omni:rtx:background:source:texture:textureMode = "repeatMirrored"
                token omni:rtx:background:source:type = "domeLight"
                bool omni:rtx:debug:view:pixelDebug:enableFixedTextPos = 1
                token omni:rtx:directLighting:sampledLighting:denoisingTechnique = "None"
                bool omni:rtx:dlss:frameGeneration = 0
                bool omni:rtx:indirectDiffuse:denoiser:enabled = 0
                bool omni:rtx:material:db:syncLoads = 1
                token omni:rtx:post:dlss:execMode = "performance"
                bool omni:rtx:post:registeredCompositing:invertColorCorrection = 1
                bool omni:rtx:post:registeredCompositing:invertToneMap = 1
                int omni:rtx:pt:maxSamplesPerLaunch = 2073600
                int omni:rtx:pt:mgpu:maxPixelsPerRegionExponent = 12
                bool omni:rtx:reflections:denoiser:enabled = 0
                token omni:rtx:rendermode = "RealTimePathTracing"
                color3f omni:rtx:rt:ambientLight:color = (0.1, 0.1, 0.1)
                bool omni:rtx:rt:demoire = 0
                bool omni:rtx:rt:lightcache:spatialCache:dontResolveConflicts = 1
                int omni:rtx:rt:sss:samples = 1
                int omni:rtx:rtpt:maxVolumeBounces = 15
                float omni:rtx:rtpt:modulatingRoughnessThreshold = 0.08
                bool omni:rtx:scene:hydra:materialSyncLoads = 1
                bool omni:rtx:scene:hydra:mdlMaterialWarmup = 1
                uint omni:rtx:viewTile:limit = 4294967295
                rel orderedVars = </Render/Vars/LdrColor>
                custom bool overrideClipRange = 0
                uniform int2 resolution = (1280, 720)
            }
        }
    }

    def RenderSettings "OmniverseGlobalRenderSettings" (
        prepend apiSchemas = ["OmniRtxSettingsGlobalRtAdvancedAPI_1", "OmniRtxSettingsGlobalPtAdvancedAPI_1"]
        no_delete = true
    )
    {
        rel products = </Render/OmniverseKit/HydraTextures/omni_kit_widget_viewport_ViewportTexture_0>
    }

    def "Vars"
    {
        def RenderVar "LdrColor" (
            hide_in_stage_window = true
            no_delete = true
        )
        {
            uniform string sourceName = "LdrColor"
        }
    }
}

